<svg xmlns="http://www.w3.org/2000/svg" viewBox="-13 -10 226 230" preserveAspectRatio="xMidYMid meet" role="img" aria-label="Impossible Cube"><polygon points="4,42 74,59 74,33 87,27 86,11 174,32 154,43 151,43 87,27 87,129 172,149 175,150 155,160 149,160 117,152 118,203 4,177" fill="#fff" stroke="#000" stroke-width="1.1" stroke-linejoin="round"/><path d="M4 46L7.218 42.782 M4 51L11.241 43.759 M4 56L15.264 44.736 M4 61L19.287 45.713 M4 66L23.31 46.69 M4 71L27.333 47.667 M4 76L31.356 48.644 M4 81L35.379 49.621 M4 86L39.402 50.598 M4 91L43.425 51.575 M4 96L47.448 52.552 M86.176 13.824L88.422 11.578 M4 101L51.471 53.529 M86.471 18.529L92.459 12.541 M4 106L55.494 54.506 M74 36L79.571 30.429 M86.765 23.235L96.495 13.505 M4 111L59.517 55.483 M74 41L87 28 M87.8 27.2L100.532 14.468 M4 116L63.54 56.46 M74 46L87 33 M91.8 28.2L104.569 15.431 M4 121L67.563 57.437 M74 51L87 38 M95.8 29.2L108.606 16.394 M4 126L71.586 58.414 M74 56L87 43 M99.8 30.2L112.642 17.358 M4 131L87 48 M103.8 31.2L116.679 18.321 M4 136L87 53 M107.8 32.2L120.716 19.284 M4 141L87 58 M111.8 33.2L124.752 20.248 M4 146L87 63 M115.8 34.2L128.789 21.211 M4 151L87 68 M119.8 35.2L132.826 22.174 M4 156L87 73 M123.8 36.2L136.862 23.138 M4 161L87 78 M127.8 37.2L140.899 24.101 M4 166L87 83 M131.8 38.2L144.936 25.064 M4 171L87 88 M135.8 39.2L148.972 26.028 M4 176L87 93 M139.8 40.2L153.009 26.991 M7.257 177.743L87 98 M143.8 41.2L157.046 27.954 M11.329 178.671L87 103 M147.8 42.2L161.083 28.917 M15.4 179.6L87 108 M152 43L165.119 29.881 M19.471 180.529L87 113 M160.667 39.333L169.156 30.844 M23.543 181.457L87 118 M171.778 33.222L173.193 31.807 M27.614 182.386L87 123 M31.686 183.314L87 128 M35.757 184.243L90.238 129.762 M39.829 185.171L94.286 130.714 M43.9 186.1L98.333 131.667 M47.971 187.029L102.381 132.619 M52.043 187.957L106.429 133.571 M56.114 188.886L110.476 134.524 M60.186 189.814L114.524 135.476 M64.257 190.743L118.571 136.429 M68.329 191.671L122.619 137.381 M72.4 192.6L126.667 138.333 M76.471 193.529L117.019 152.981 M117.8 152.2L130.714 139.286 M80.543 194.457L117.115 157.885 M121.8 153.2L134.762 140.238 M84.614 195.386L117.212 162.788 M125.8 154.2L138.81 141.19 M88.686 196.314L117.308 167.692 M129.8 155.2L142.857 142.143 M92.757 197.243L117.404 172.596 M133.8 156.2L146.905 143.095 M96.829 198.171L117.5 177.5 M137.8 157.2L150.952 144.048 M100.9 199.1L117.596 182.404 M141.8 158.2L155 145 M104.971 200.029L117.692 187.308 M145.8 159.2L159.048 145.952 M109.043 200.957L117.788 192.212 M150 160L163.095 146.905 M113.114 201.886L117.885 197.115 M155 160L167.143 147.857 M117.186 202.814L117.981 202.019 M165 155L171.19 148.81" fill="none" stroke="#000" stroke-width="0.7"/><polygon points="17,62 17,163 104,185 104,148 87,145 87,129 74,126 74,76" fill="#fff" stroke="#000" stroke-width="1.1" stroke-linejoin="round"/><polygon points="175,58 188,52 188,153 175,150" fill="#fff" stroke="#000" stroke-width="1.1" stroke-linejoin="round"/><path d="M175 60L178.714 56.286 M175 65L188 52 M175 70L188 57 M175 75L188 62 M175 80L188 67 M175 85L188 72 M175 90L188 77 M175 95L188 82 M175 100L188 87 M175 105L188 92 M175 110L188 97 M175 115L188 102 M175 120L188 107 M175 125L188 112 M175 130L188 117 M175 135L188 122 M175 140L188 127 M175 145L188 132 M175 150L188 137 M179.063 150.938L188 142 M183.125 151.875L188 147 M187.188 152.813L188 152" fill="none" stroke="#000" stroke-width="0.7"/><polygon points="97,65 118,70 117,129 104,126 104,83 97,81" fill="#fff" stroke="#000" stroke-width="1.1" stroke-linejoin="round"/><path d="M97 68L99.423 65.577 M97 73L103.462 66.538 M97 78L107.5 67.5 M98.556 81.444L111.538 68.462 M102.444 82.556L115.577 69.423 M104 86L117.966 72.034 M104 91L117.879 77.121 M104 96L117.793 82.207 M104 101L117.707 87.293 M104 106L117.621 92.379 M104 111L117.534 97.466 M104 116L117.448 102.552 M104 121L117.362 107.638 M104 126L117.276 112.724 M108.063 126.938L117.19 117.81 M112.125 127.875L117.103 122.897 M116.188 128.813L117.017 127.983" fill="none" stroke="#000" stroke-width="0.7"/><polygon points="118,70 197,30 197,164 118,203 118,203 118,152 127,154 127,184 189,153 189,94 188,52 185,52 127,81 127,131 119,130" fill="#000" stroke="#000" stroke-width="1.1" stroke-linejoin="round"/><polygon points="87,27 96,30 96,124 89,128 87,119" fill="#000" stroke="#000" stroke-width="1.1" stroke-linejoin="round"/><polygon points="17,63 25,64 25,160 17,163 17,163" fill="#000" stroke="#000" stroke-width="1.1" stroke-linejoin="round"/><polygon points="28,159 87,130 87,145 49,164" fill="#000" stroke="#000" stroke-width="1.1" stroke-linejoin="round"/><polygon points="27,41 86,11 87,27 49,46" fill="#000" stroke="#000" stroke-width="1.1" stroke-linejoin="round"/><polygon points="4,42 82,3 197,30 118,70 97,65 97,58 115,62 160,39 174,32 159,28 86,11 26,41 73,52 74,59 18,47" fill="#fff" stroke="#000" stroke-width="1.1" stroke-linejoin="round"/><polygon points="88,128 98,124 125,132 174,142 175,150 188,154 130,183 127,183 127,173 175,150 89,130" fill="#fff" stroke="#000" stroke-width="1.1" stroke-linejoin="round"/><polygon points="17,163 24,160 30,160 103,177 104,185 19,165" fill="#fff" stroke="#000" stroke-width="1.1" stroke-linejoin="round"/><polygon points="26,149 72,126 86,129 28,159 26,159" fill="#fff" stroke="#000" stroke-width="1.1" stroke-linejoin="round"/></svg>
